<svg width="1024" height="1024" viewBox="0 0 1024 1024" xmlns="http://www.w3.org/2000/svg">
  <!-- Background with gradient -->
  <defs>
    <linearGradient id="bgGradient" x1="0%" y1="0%" x2="100%" y2="100%">
      <stop offset="0%" style="stop-color:#2563eb;stop-opacity:1" />
      <stop offset="100%" style="stop-color:#1d4ed8;stop-opacity:1" />
    </linearGradient>
    <linearGradient id="boxGradient" x1="0%" y1="0%" x2="100%" y2="100%">
      <stop offset="0%" style="stop-color:#ffffff;stop-opacity:0.9" />
      <stop offset="100%" style="stop-color:#f8fafc;stop-opacity:0.8" />
    </linearGradient>
  </defs>
  
  <!-- Background -->
  <rect width="1024" height="1024" rx="180" ry="180" fill="url(#bgGradient)"/>
  
  <!-- Gift box base -->
  <rect x="200" y="300" width="624" height="400" rx="20" ry="20" fill="url(#boxGradient)"/>
  
  <!-- Gift box lid -->
  <rect x="180" y="280" width="664" height="80" rx="20" ry="20" fill="url(#boxGradient)"/>
  
  <!-- Ribbon around box -->
  <rect x="200" y="450" width="624" height="40" fill="#2563eb"/>
  
  <!-- Ribbon bow -->
  <ellipse cx="400" cy="470" rx="60" ry="30" fill="#1d4ed8"/>
  <ellipse cx="624" cy="470" rx="60" ry="30" fill="#1d4ed8"/>
  
  <!-- Birthday cake inside -->
  <rect x="350" y="350" width="324" height="80" rx="10" ry="10" fill="#fbbf24"/>
  <rect x="370" y="330" width="284" height="60" rx="10" ry="10" fill="#f59e0b"/>
  
  <!-- Cake candles -->
  <rect x="450" y="300" width="8" height="40" fill="#ef4444"/>
  <rect x="500" y="300" width="8" height="40" fill="#ef4444"/>
  <rect x="550" y="300" width="8" height="40" fill="#ef4444"/>
  
  <!-- Candle flames -->
  <ellipse cx="454" cy="290" rx="6" ry="12" fill="#fbbf24"/>
  <ellipse cx="504" cy="290" rx="6" ry="12" fill="#fbbf24"/>
  <ellipse cx="554" cy="290" rx="6" ry="12" fill="#fbbf24"/>
  
  <!-- Gift box highlights -->
  <rect x="200" y="300" width="624" height="20" rx="20" ry="20" fill="rgba(255,255,255,0.3)"/>
  <rect x="180" y="280" width="664" height="20" rx="20" ry="20" fill="rgba(255,255,255,0.4)"/>
  
  <!-- Shadow -->
  <rect x="220" y="720" width="584" height="20" rx="10" ry="10" fill="rgba(0,0,0,0.1)"/>
</svg>
